Coordinates
version=1
nRows=41
nColumns=38
inDegrees=no

Units are S.I. units (second, meters, Newtons, ...)
If the header above contains a line with 'inDegrees', this indicates whether rotational values are in degrees (yes) or radians (no).

endheader
time	pelvis_tilt	pelvis_list	pelvis_rotation	pelvis_tx	pelvis_ty	pelvis_tz	hip_flexion_r	hip_adduction_r	hip_rotation_r	knee_angle_r	ankle_angle_r	subtalar_angle_r	mtp_angle_r	hip_flexion_l	hip_adduction_l	hip_rotation_l	knee_angle_l	ankle_angle_l	subtalar_angle_l	mtp_angle_l	lumbar_extension	lumbar_bending	lumbar_rotation	arm_flex_r	arm_add_r	arm_rot_r	elbow_flex_r	pro_sup_r	wrist_flex_r	wrist_dev_r	arm_flex_l	arm_add_l	arm_rot_l	elbow_flex_l	pro_sup_l	wrist_flex_l	wrist_dev_l
0.63	1.61649	1.49961	2.92536	0.718681	0.949419	0.925346	-0.120793	-0.155939	-0.111328	0.663159	0.184301	0	0	0.502846	0.0812764	-0.262404	0.355201	0.135621	0	0	-0.0600258	-0.122406	0.0515734	-0.22961	-0.140195	-0.179941	0.359514	1.32974	0	0	-0.347306	-0.443899	0.422458	0.637991	0.688049	0	0
0.64	1.69837	1.48906	2.84355	0.71931	0.935244	0.924038	-0.0810895	-0.173671	-0.0990088	0.734828	0.137522	0	0	0.517314	0.0899972	-0.260266	0.383288	0.106179	0	0	-0.0449844	-0.13573	0.0457088	-0.238328	-0.143592	-0.144353	0.373676	1.27869	0	0	-0.361149	-0.450393	0.421857	0.64598	0.667401	0	0
0.65	1.75091	1.46884	2.7949	0.719892	0.921392	0.922374	-0.0265422	-0.218286	-0.124496	0.827782	0.0832303	0	0	0.537688	0.107068	-0.261003	0.422032	0.0984335	0	0	-0.0293583	-0.160135	0.0380394	-0.238502	-0.134632	-0.180494	0.370963	1.33266	0	0	-0.374833	-0.466456	0.432716	0.665234	0.630218	0	0
0.66	1.70283	1.46592	2.84729	0.720401	0.907804	0.923373	-0.00356662	-0.208231	-0.0701472	0.880116	0.0168323	0	0	0.539934	0.1109	-0.256897	0.46079	0.0984779	0	0	-0.0324731	-0.168276	0.0292144	-0.237971	-0.135658	-0.157691	0.372702	1.30477	0	0	-0.378611	-0.468339	0.420968	0.661158	0.651241	0	0
0.67	1.6629	1.45841	2.88962	0.720557	0.894141	0.923612	0.0318702	-0.219189	-0.0503575	0.948345	-0.0542906	0	0	0.541604	0.117373	-0.258249	0.496006	0.0980796	0	0	-0.0327294	-0.180826	0.0242458	-0.236904	-0.133255	-0.156691	0.369958	1.31094	0	0	-0.383516	-0.477255	0.422484	0.666805	0.645438	0	0
0.68	1.61936	1.45145	2.93517	0.720771	0.88057	0.923966	0.0665207	-0.228868	-0.0317552	1.0126	-0.126607	0	0	0.536273	0.124795	-0.260361	0.520262	0.0943521	0	0	-0.0341477	-0.19215	0.0202691	-0.23531	-0.13177	-0.155178	0.367398	1.31488	0	0	-0.387279	-0.486977	0.42797	0.674478	0.640927	0	0
0.69	1.57708	1.4445	2.97831	0.721147	0.867437	0.924439	0.100968	-0.237867	-0.0134526	1.07229	-0.199924	0	0	0.525176	0.133145	-0.265052	0.534122	0.0915882	0	0	-0.0366351	-0.202491	0.0180438	-0.23326	-0.131076	-0.153272	0.365478	1.31692	0	0	-0.388308	-0.49666	0.436553	0.682495	0.63752	0	0
0.7	1.54182	1.43722	3.01426	0.721757	0.854755	0.925056	0.134547	-0.246632	0.00352221	1.12627	-0.269101	0	0	0.509974	0.142971	-0.271188	0.539025	0.0921745	0	0	-0.0392323	-0.212297	0.0163653	-0.231853	-0.130697	-0.151881	0.366538	1.31792	0	0	-0.387131	-0.505488	0.44409	0.689881	0.633782	0	0
0.71	1.51109	1.43071	3.04534	0.722408	0.842418	0.925825	0.166498	-0.252865	0.0205497	1.17514	-0.32151	0	0	0.492244	0.152958	-0.276705	0.538739	0.0967132	0	0	-0.0414369	-0.221016	0.0147079	-0.239018	-0.139165	-0.0861086	0.387431	1.22281	0	0	-0.385335	-0.515802	0.457195	0.699964	0.615197	0	0
0.72	1.49172	1.42605	3.06549	0.72301	0.830276	0.926818	0.198621	-0.254577	0.0379367	1.22242	-0.338327	0	0	0.474893	0.162266	-0.277724	0.536812	0.104264	0	0	-0.0430803	-0.227146	0.0149804	-0.236444	-0.131733	-0.139559	0.386474	1.29928	0	0	-0.379193	-0.522648	0.464519	0.702027	0.60778	0	0
0.73	1.47406	1.42429	3.0853	0.723643	0.818356	0.928211	0.23024	-0.25085	0.0542555	1.26796	-0.325013	0	0	0.457632	0.170434	-0.272097	0.534984	0.112363	0	0	-0.0448466	-0.229958	0.0121434	-0.23738	-0.131776	-0.139587	0.394805	1.2976	0	0	-0.373574	-0.525752	0.463641	0.700469	0.608774	0	0
0.74	1.44899	1.42457	3.1131	0.724265	0.806809	0.930139	0.260973	-0.243572	0.0675624	1.30942	-0.296899	0	0	0.438854	0.178084	-0.260642	0.531972	0.118809	0	0	-0.0487053	-0.230392	0.00817202	-0.23597	-0.132069	-0.139914	0.401962	1.29438	0	0	-0.366389	-0.527362	0.46163	0.697184	0.608219	0	0
0.75	1.41541	1.42656	-3.1331	0.724797	0.795525	0.932543	0.285202	-0.233382	0.0808843	1.34272	-0.254751	0	0	0.417469	0.184541	-0.245881	0.526778	0.124633	0	0	-0.0542591	-0.228957	0.00300906	-0.231383	-0.132239	-0.138388	0.404197	1.29067	0	0	-0.358975	-0.528411	0.457579	0.694739	0.606385	0	0
0.76	1.36974	1.43008	-3.08274	0.725382	0.784313	0.935415	0.305741	-0.222602	0.0883068	1.36857	-0.216995	0	0	0.392141	0.189424	-0.229414	0.518527	0.13124	0	0	-0.0618016	-0.225353	-0.00379363	-0.224536	-0.132627	-0.134763	0.402086	1.28632	0	0	-0.35145	-0.528925	0.452897	0.693385	0.603979	0	0
0.77	1.32197	1.43548	-3.02899	0.726018	0.773155	0.938499	0.325379	-0.210083	0.0927208	1.38858	-0.18606	0	0	0.365445	0.191324	-0.213382	0.508503	0.138835	0	0	-0.0692341	-0.219047	-0.0115564	-0.217153	-0.133159	-0.129632	0.39765	1.28106	0	0	-0.343703	-0.529412	0.450551	0.693172	0.602124	0	0
0.78	1.27112	1.44185	-2.97115	0.726785	0.762209	0.941668	0.345082	-0.196984	0.0947782	1.40408	-0.160941	0	0	0.337588	0.19131	-0.198228	0.495273	0.145837	0	0	-0.0769466	-0.210827	-0.0203251	-0.209465	-0.134434	-0.119804	0.392561	1.26962	0	0	-0.335569	-0.52943	0.449048	0.693271	0.599663	0	0
0.79	1.22222	1.44903	-2.91335	0.727772	0.75152	0.944708	0.365594	-0.184508	0.0936929	1.41475	-0.140604	0	0	0.310909	0.189394	-0.184467	0.481688	0.152534	0	0	-0.0842968	-0.201013	-0.0304791	-0.202767	-0.136163	-0.108008	0.390218	1.25077	0	0	-0.326976	-0.529477	0.447505	0.694447	0.599321	0	0
0.8	1.17956	1.45044	-2.85707	0.729204	0.740279	0.947369	0.387903	-0.200415	0.0666804	1.42204	-0.12788	0	0	0.281676	0.194377	-0.169262	0.464384	0.157638	0	0	-0.091614	-0.19706	-0.0437252	-0.190194	-0.126292	-0.17578	0.370292	1.34689	0	0	-0.32011	-0.535453	0.455045	0.705045	0.58372	0	0
0.81	1.13588	1.45672	-2.80175	0.73039	0.729747	0.94999	0.408042	-0.19188	0.0617258	1.42113	-0.112053	0	0	0.256409	0.191293	-0.159133	0.450141	0.163831	0	0	-0.097684	-0.187793	-0.0559756	-0.18287	-0.125911	-0.176001	0.365054	1.34315	0	0	-0.312026	-0.537149	0.455021	0.708875	0.587069	0	0
0.82	1.08454	1.46696	-2.7404	0.731327	0.719956	0.952638	0.425551	-0.160646	0.0776015	1.41282	-0.0897779	0	0	0.234099	0.182141	-0.151068	0.436733	0.169838	0	0	-0.103522	-0.174192	-0.0660401	-0.175166	-0.126149	-0.174062	0.361418	1.33753	0	0	-0.301116	-0.538156	0.457671	0.710395	0.593985	0	0
0.83	1.05363	1.46708	-2.69419	0.732905	0.70898	0.954647	0.445808	-0.181877	0.0467771	1.4069	-0.0730659	0	0	0.206857	0.185464	-0.140605	0.419248	0.1748	0	0	-0.10898	-0.171257	-0.0813863	-0.173468	-0.125661	-0.171673	0.363102	1.33351	0	0	-0.295693	-0.542726	0.45892	0.717346	0.599748	0	0
0.84	1.00343	1.47584	-2.63364	0.73386	0.699329	0.956906	0.462436	-0.155207	0.0605982	1.39075	-0.0495741	0	0	0.18544	0.176826	-0.133191	0.404893	0.180032	0	0	-0.11372	-0.159144	-0.0912691	-0.167452	-0.126558	-0.165101	0.361182	1.32595	0	0	-0.284903	-0.543943	0.460836	0.717869	0.608043	0	0
0.85	0.973951	1.4793	-2.58993	0.735269	0.689128	0.958671	0.480289	-0.156494	0.0501835	1.37449	-0.0307901	0	0	0.162224	0.175298	-0.123134	0.388462	0.184893	0	0	-0.11773	-0.152992	-0.105155	-0.163784	-0.127014	-0.158832	0.36007	1.32029	0	0	-0.277438	-0.547378	0.463055	0.722189	0.61307	0	0
0.86	0.955995	1.48275	-2.5584	0.736581	0.679026	0.960119	0.498	-0.158765	0.0401277	1.35473	-0.0118685	0	0	0.141147	0.173422	-0.114907	0.373653	0.190595	0	0	-0.120344	-0.147582	-0.11807	-0.160649	-0.127675	-0.15147	0.358952	1.31337	0	0	-0.270046	-0.550758	0.465791	0.725752	0.616666	0	0
0.87	0.94494	1.48105	-2.53115	0.738201	0.668491	0.961412	0.512639	-0.178377	0.0163201	1.33422	0.00547208	0	0	0.114023	0.177882	-0.0990907	0.352432	0.193588	0	0	-0.124983	-0.146982	-0.133749	-0.156432	-0.126062	-0.161749	0.354023	1.3349	0	0	-0.264274	-0.555964	0.47022	0.731056	0.623021	0	0
0.88	0.915479	1.48663	-2.48973	0.739303	0.65895	0.962705	0.525283	-0.169058	0.0181773	1.30363	0.0207032	0	0	0.0948366	0.172605	-0.0889054	0.338041	0.19906	0	0	-0.127773	-0.138951	-0.144851	-0.151446	-0.127871	-0.153186	0.352481	1.32823	0	0	-0.254238	-0.557618	0.475302	0.730298	0.625568	0	0
0.89	0.905938	1.48902	-2.46684	0.740516	0.648964	0.96361	0.538222	-0.174382	0.00752085	1.27328	0.0314571	0	0	0.0741532	0.171524	-0.0767575	0.322076	0.20301	0	0	-0.129915	-0.134948	-0.157316	-0.147916	-0.129431	-0.143688	0.350047	1.32331	0	0	-0.246051	-0.56011	0.48027	0.730134	0.627056	0	0
0.9	0.879113	1.49264	-2.43207	0.742469	0.639281	0.964107	0.552069	-0.184296	-0.00120929	1.23959	0.0451527	0	0	0.0554784	0.176501	-0.0558694	0.30996	0.200597	0	0	-0.132001	-0.1276	-0.165746	-0.143568	-0.133048	-0.133922	0.347744	1.31829	0	0	-0.237803	-0.560315	0.485902	0.728621	0.628845	0	0
0.91	0.87914	1.49521	-2.42081	0.743444	0.62943	0.964534	0.563492	-0.190277	-0.011294	1.20339	0.0556185	0	0	0.037198	0.175412	-0.0441573	0.296172	0.203056	0	0	-0.133428	-0.123989	-0.175052	-0.14058	-0.134681	-0.125738	0.346087	1.31134	0	0	-0.227834	-0.56196	0.492956	0.72599	0.631866	0	0
0.92	0.880856	1.49754	-2.41203	0.744352	0.619583	0.964805	0.573302	-0.196329	-0.021492	1.16462	0.0668341	0	0	0.0190981	0.174276	-0.0324737	0.28252	0.205549	0	0	-0.134866	-0.120738	-0.183039	-0.137616	-0.136308	-0.118358	0.344404	1.3032	0	0	-0.217243	-0.563153	0.50027	0.722433	0.634724	0	0
0.93	0.882122	1.49975	-2.4041	0.744781	0.60965	0.96489	0.581525	-0.201255	-0.0308713	1.12301	0.077176	0	0	0.00151512	0.17278	-0.0231093	0.269569	0.209133	0	0	-0.136338	-0.117899	-0.189147	-0.135374	-0.137628	-0.111144	0.342643	1.29498	0	0	-0.206292	-0.564134	0.506958	0.718506	0.636929	0	0
0.94	0.919878	1.50326	-2.43524	0.745462	0.600257	0.964433	0.58817	-0.200583	-0.0137782	1.07355	0.0929271	0	0	-0.0103108	0.171357	-0.0158083	0.26156	0.213945	0	0	-0.135235	-0.115821	-0.19267	-0.133137	-0.13927	-0.104555	0.342248	1.28584	0	0	-0.196151	-0.56483	0.512147	0.715916	0.638675	0	0
0.95	0.904416	1.50344	-2.41233	0.745628	0.590223	0.964341	0.590711	-0.205833	-0.0241092	1.02614	0.101043	0	0	-0.0321655	0.170822	-0.00131434	0.24412	0.214433	0	0	-0.139384	-0.113502	-0.196452	-0.128676	-0.138639	-0.118495	0.337364	1.30007	0	0	-0.18451	-0.563494	0.51442	0.708957	0.658413	0	0
0.96	0.90843	1.50453	-2.41025	0.746229	0.580423	0.963812	0.59457	-0.210554	-0.0351181	0.978172	0.108472	0	0	-0.0494088	0.169818	0.01049	0.232798	0.217019	0	0	-0.141567	-0.111213	-0.19921	-0.126396	-0.140752	-0.11336	0.3369	1.29174	0	0	-0.174552	-0.562928	0.519168	0.705747	0.663426	0	0
0.97	0.892435	1.50514	-2.38825	0.746856	0.570365	0.96326	0.599421	-0.217789	-0.0726149	0.934298	0.10886	0	0	-0.0679778	0.167846	0.0200064	0.221715	0.2199	0	0	-0.144652	-0.108476	-0.201703	-0.12493	-0.142832	-0.107537	0.336715	1.28335	0	0	-0.165414	-0.562315	0.523233	0.703152	0.668416	0	0
0.98	0.929863	1.50791	-2.42079	0.746438	0.560404	0.962123	0.600218	-0.216962	-0.0579572	0.878109	0.117666	0	0	-0.0795175	0.1667	0.0285784	0.214314	0.223039	0	0	-0.143701	-0.107204	-0.203139	-0.123427	-0.144342	-0.101927	0.336805	1.27392	0	0	-0.157126	-0.562293	0.526806	0.7012	0.673788	0	0
0.99	0.906563	1.50948	-2.3917	0.74648	0.550232	0.961234	0.602391	-0.221052	-0.0961791	0.831231	0.116586	0	0	-0.0954864	0.163265	0.0369731	0.207205	0.226814	0	0	-0.146524	-0.103772	-0.205553	-0.121822	-0.146013	-0.0973198	0.337904	1.26315	0	0	-0.149254	-0.56199	0.530623	0.699998	0.679132	0	0
1	0.910663	1.5121	-2.39014	0.746293	0.540134	0.95997	0.602172	-0.221589	-0.109914	0.778545	0.118798	0	0	-0.107344	0.159736	0.0437356	0.203809	0.233032	0	0	-0.147308	-0.101122	-0.207964	-0.12034	-0.14706	-0.0919552	0.339214	1.25232	0	0	-0.142055	-0.562181	0.533944	0.699453	0.683241	0	0
1.01	0.95785	1.51408	-2.42612	0.745348	0.529701	0.958632	0.601128	-0.218847	-0.119517	0.726237	0.116931	0	0	-0.118275	0.148691	0.0373633	0.198501	0.245998	0	0	-0.146528	-0.10217	-0.213003	-0.12136	-0.14578	-0.0858024	0.340453	1.24148	0	0	-0.134569	-0.564117	0.537347	0.699183	0.686068	0	0
1.02	0.899632	1.51576	-2.36405	0.744943	0.519158	0.957492	0.593521	-0.217014	-0.136325	0.669872	0.119229	0	0	-0.135669	0.143548	0.0455732	0.191626	0.249657	0	0	-0.150472	-0.097475	-0.212721	-0.113759	-0.140414	-0.131519	0.328359	1.30186	0	0	-0.12666	-0.562142	0.538754	0.69493	0.704547	0	0
1.03	0.860747	1.51806	-2.32252	0.744301	0.50844	0.956043	0.587291	-0.214142	-0.152702	0.614769	0.123182	0	0	-0.150329	0.138767	0.0508112	0.187269	0.254983	0	0	-0.152006	-0.093674	-0.212411	-0.111335	-0.140257	-0.12816	0.326887	1.29651	0	0	-0.121362	-0.561793	0.542717	0.694465	0.709628	0	0
